<svg width="60" height="60" viewBox="0 0 60 60" fill="none" xmlns="http://www.w3.org/2000/svg">
<circle cx="30" cy="30" r="29.5" fill="#2449FF" stroke="#2449FF"/>
<path d="M29.5 27.4167C33.6417 27.4167 37.8333 25.9854 37.8333 23.25C37.8333 20.5146 33.6417 19.0833 29.5 19.0833C25.3584 19.0833 21.1667 20.5146 21.1667 23.25C21.1667 25.9854 25.3584 27.4167 29.5 27.4167Z" fill="white"/>
<path d="M21.1667 27.4167C21.1667 30.1521 25.3584 31.5833 29.5 31.5833C33.6417 31.5833 37.8333 30.1521 37.8333 27.4167V25.3333C37.8333 28.0688 33.6417 29.5 29.5 29.5C25.3584 29.5 21.1667 28.0688 21.1667 25.3333V27.4167Z" fill="white"/>
<path d="M21.1667 31.5833C21.1667 34.3187 25.3584 35.75 29.5 35.75C33.6417 35.75 37.8333 34.3187 37.8333 31.5833V29.5C37.8333 32.2354 33.6417 33.6667 29.5 33.6667C25.3584 33.6667 21.1667 32.2354 21.1667 29.5V31.5833Z" fill="white"/>
<path d="M21.1667 35.75C21.1667 38.4854 25.3584 39.9167 29.5 39.9167C33.6417 39.9167 37.8333 38.4854 37.8333 35.75V33.6667C37.8333 36.4021 33.6417 37.8333 29.5 37.8333C25.3584 37.8333 21.1667 36.4021 21.1667 33.6667V35.75Z" fill="white"/>
<rect x="17.5" y="17.5" width="24" height="24" stroke="#2449FF"/>
</svg>
