<svg width="60" height="60" viewBox="0 0 60 60" fill="none" xmlns="http://www.w3.org/2000/svg">
<circle cx="30" cy="30" r="29.5" fill="white" stroke="#EDEDEF"/>
<path d="M30.2396 19.3854C30.1427 19.2878 30.0275 19.2103 29.9006 19.1574C29.7736 19.1045 29.6375 19.0773 29.5 19.0773C29.3625 19.0773 29.2263 19.1045 29.0994 19.1574C28.9724 19.2103 28.8572 19.2878 28.7604 19.3854L19.3854 28.7604C19.2878 28.8573 19.2103 28.9725 19.1574 29.0994C19.1045 29.2263 19.0773 29.3625 19.0773 29.5C19.0773 29.6375 19.1045 29.7737 19.1574 29.9006C19.2103 30.0275 19.2878 30.1428 19.3854 30.2396C19.4827 30.3361 19.5982 30.4125 19.7251 30.4644C19.852 30.5162 19.9879 30.5425 20.125 30.5417H21.1666V37.8333C21.1666 38.3859 21.3861 38.9158 21.7768 39.3065C22.1675 39.6972 22.6974 39.9167 23.25 39.9167H35.75C36.3025 39.9167 36.8324 39.6972 37.2231 39.3065C37.6138 38.9158 37.8333 38.3859 37.8333 37.8333V30.5417H38.875C39.1512 30.5417 39.4162 30.4319 39.6115 30.2366C39.8069 30.0412 39.9166 29.7763 39.9166 29.5C39.9174 29.3629 39.8912 29.227 39.8393 29.1001C39.7875 28.9732 39.7111 28.8578 39.6146 28.7604L30.2396 19.3854ZM23.25 37.8333V27.8438L29.5 21.5938L35.75 27.8438V37.8333H23.25Z" fill="#6B6B6F"/>
</svg>
